<mxfile host="app.diagrams.net" modified="2024-01-31T14:11:11.146Z" agent="Mozilla/5.0 (Windows NT 10.0; Win64; x64) AppleWebKit/537.36 (KHTML, like Gecko) Chrome/121.0.0.0 Safari/537.36 Edg/121.0.0.0" etag="qow7s0T1FubDCeKh7XSE" version="23.0.2" type="github">
  <diagram name="Page-1" id="xDBqqRAsusp3xRpfGvq9">
    <mxGraphModel dx="1386" dy="793" grid="1" gridSize="10" guides="1" tooltips="1" connect="1" arrows="1" fold="1" page="1" pageScale="1" pageWidth="850" pageHeight="1100" math="0" shadow="0">
      <root>
        <mxCell id="0" />
        <mxCell id="1" parent="0" />
        <mxCell id="Lg0knoRGE63KNMcegUV7-2" value="" style="rounded=1;arcSize=10;dashed=0;fillColor=none;gradientColor=none;strokeWidth=2;" vertex="1" parent="1">
          <mxGeometry x="80" y="80" width="680" height="520" as="geometry" />
        </mxCell>
        <mxCell id="Lg0knoRGE63KNMcegUV7-3" value="" style="dashed=0;html=1;shape=mxgraph.aws3.cloud;fillColor=#F58536;gradientColor=none;dashed=0;" vertex="1" parent="1">
          <mxGeometry x="100" y="60" width="52" height="36" as="geometry" />
        </mxCell>
        <mxCell id="Lg0knoRGE63KNMcegUV7-4" value="Region" style="sketch=0;outlineConnect=0;gradientColor=none;html=1;whiteSpace=wrap;fontSize=12;fontStyle=0;shape=mxgraph.aws4.group;grIcon=mxgraph.aws4.group_region;strokeColor=#879196;fillColor=none;verticalAlign=top;align=left;spacingLeft=30;fontColor=#879196;dashed=1;" vertex="1" parent="1">
          <mxGeometry x="110" y="110" width="620" height="460" as="geometry" />
        </mxCell>
        <mxCell id="Lg0knoRGE63KNMcegUV7-5" value="" style="rounded=1;arcSize=10;dashed=0;fillColor=none;gradientColor=none;strokeWidth=2;" vertex="1" parent="1">
          <mxGeometry x="160" y="160" width="520" height="360" as="geometry" />
        </mxCell>
        <mxCell id="Lg0knoRGE63KNMcegUV7-6" value="" style="dashed=0;html=1;shape=mxgraph.aws3.permissions;fillColor=#D9A741;gradientColor=none;dashed=0;" vertex="1" parent="1">
          <mxGeometry x="180" y="140" width="30" height="35" as="geometry" />
        </mxCell>
      </root>
    </mxGraphModel>
  </diagram>
</mxfile>
